<!DOCTYPE svg PUBLIC "-//W3C//DTD SVG 1.1//EN" "http://www.w3.org/Graphics/SVG/1.1/DTD/svg11.dtd">
<!-- Uploaded to: SVG Repo, www.svgrepo.com, Transformed by: SVG Repo Mixer Tools -->
<svg fill="#e11d48" width="800px" height="800px" viewBox="-25.6 -25.6 307.20 307.20" id="Flat" xmlns="http://www.w3.org/2000/svg" stroke="#e11d48" stroke-width="0.00256" transform="matrix(1, 0, 0, 1, 0, 0)">
<g id="SVGRepo_bgCarrier" stroke-width="0">
<rect x="-25.6" y="-25.6" width="307.20" height="307.20" rx="46.08" fill="#ffffff" strokewidth="0"/>
</g>
<g id="SVGRepo_iconCarrier"> <path d="M128,104H32V56h96Zm48,0v48H128v48h96V104Z" opacity="0.2"/> <path d="M224,48H32a8.00008,8.00008,0,0,0-8,8V200a8.00008,8.00008,0,0,0,8,8H224a8.00008,8.00008,0,0,0,8-8V56A8.00008,8.00008,0,0,0,224,48ZM88,144V112h80v32Zm-48,0V112H72v32Zm144-32h32v32H184Zm32-16H136V64h80ZM120,64V96H40V64ZM40,160h80v32H40Zm96,32V160h80v32Z"/> </g>
</svg>